<?xml version="1.0" encoding="iso-8859-1"?>
<!-- Generator: Adobe Illustrator 19.0.0, SVG Export Plug-In . SVG Version: 6.00 Build 0)  -->
<svg version="1.1" id="Capa_1" xmlns="http://www.w3.org/2000/svg" xmlns:xlink="http://www.w3.org/1999/xlink" x="0px" y="0px"
	 viewBox="0 0 514.4 514.4" style="enable-background:new 0 0 514.4 514.4;" xml:space="preserve">
<path style="fill:#FFFFFF;" d="M348,505.2H32c-13.6,0-24-10.4-24-24v-448c0-13.6,10.4-24,24-24h316c13.6,0,24,10.4,24,24v448
	C372,494.8,361.6,505.2,348,505.2z"/>
<rect x="40" y="69.2" style="fill:#27A2DE;" width="300" height="362.4"/>
<path style="fill:#FFFFFF;" d="M504,190.8l-287.2-36l32.8,172.8h199.2c12,0,22.4-8,25.6-20L504,190.8z"/>
<polygon style="fill:#FFBF5D;" points="276,295.6 256,191.6 464,218 444.8,295.6 "/>
<g>
	<circle style="fill:#FFFFFF;" cx="424.8" cy="392.4" r="21.6"/>
	<circle style="fill:#FFFFFF;" cx="296.8" cy="392.4" r="21.6"/>
</g>
<circle style="fill:#FFBF5D;" cx="157.6" cy="110.8" r="24"/>
<g>
	<rect x="104.8" y="460.4" style="fill:#193651;" width="16" height="16"/>
	<rect x="259.2" y="460.4" style="fill:#193651;" width="16" height="16"/>
	<rect x="154.4" y="460.4" style="fill:#193651;" width="71.2" height="16"/>
	<rect x="154.4" y="32.4" style="fill:#193651;" width="71.2" height="16"/>
	<path style="fill:#193651;" d="M32,513.2h316c17.6,0,32-14.4,32-32V378h18.4c-2.4,4-4,8.8-4,13.6c0,16.8,13.6,29.6,29.6,29.6
		c16.8,0,29.6-13.6,29.6-29.6c0-4.8-1.6-9.6-4-13.6h31.2v-16H301.6c-18.4,0-34.4-11.2-40.8-27.2h188.8c16,0,29.6-10.4,32.8-25.6
		l32-125.6l-133.6-16.8V33.2c0-17.6-14.4-32-32-32H32c-17.6,0-32,14.4-32,32v448C0,498.8,14.4,513.2,32,513.2z M424.8,378
		c8,0,13.6,6.4,13.6,13.6c0,8-6.4,13.6-13.6,13.6c-8,0-13.6-6.4-13.6-13.6C410.4,384.4,416.8,378,424.8,378z M296.8,378
		c8,0,13.6,6.4,13.6,13.6c0,8-6.4,13.6-13.6,13.6c-8,0-13.6-6.4-13.6-13.6C283.2,384.4,288.8,378,296.8,378z M493.6,197.2l-27.2,108
		c-2.4,8-9.6,13.6-17.6,13.6H256l-29.6-156L493.6,197.2z M16,33.2c0-8.8,7.2-16,16-16h316c8.8,0,16,7.2,16,16v132l-140.8-17.6
		l-5.6-28c-1.6-9.6-10.4-16.8-20-16.8h-8.8c-3.2-13.6-16-24-30.4-24c-17.6,0-32,14.4-32,32s14.4,32,32,32c14.4,0,27.2-10.4,30.4-24
		h8.8c2.4,0,4,1.6,4.8,4l40,206.4c4,19.2,16,35.2,32.8,43.2c-4.8,5.6-8,12-8,20c0,16.8,13.6,29.6,29.6,29.6
		c16.8,0,29.6-13.6,29.6-29.6c0-4.8-1.6-9.6-4-13.6h40.8v102.4c0,8.8-7.2,16-16,16H32c-8.8,0-16-7.2-16-16C16,481.2,16,33.2,16,33.2
		z M173.6,110.8c0,8.8-7.2,16-16,16s-16-7.2-16-16s7.2-16,16-16S173.6,102,173.6,110.8z"/>
	<rect x="295.2" y="240.4" style="fill:#193651;" width="16" height="18.4"/>
	<rect x="352" y="240.4" style="fill:#193651;" width="16" height="18.4"/>
	<rect x="408.8" y="240.4" style="fill:#193651;" width="16" height="18.4"/>
</g>
<g>
</g>
<g>
</g>
<g>
</g>
<g>
</g>
<g>
</g>
<g>
</g>
<g>
</g>
<g>
</g>
<g>
</g>
<g>
</g>
<g>
</g>
<g>
</g>
<g>
</g>
<g>
</g>
<g>
</g>
</svg>
