<?xml version="1.0" encoding="iso-8859-1"?>
<!-- Generator: Adobe Illustrator 19.0.0, SVG Export Plug-In . SVG Version: 6.00 Build 0)  -->
<svg version="1.1" id="Layer_1" xmlns="http://www.w3.org/2000/svg" xmlns:xlink="http://www.w3.org/1999/xlink" x="0px" y="0px"
	 viewBox="0 0 512 512" style="enable-background:new 0 0 512 512;" xml:space="preserve">
<g>
	<path style="fill:#91CC04;" d="M288.193,222.114c-5.162,10.48-24.9,13.343-32.967,24.148c-7.199,9.655-3.918,29.299-13.208,38.599
		c-3.803,3.793-9.331,5.486-15.193,6.666H103.623c0.585-10.877-8.861-26.718-2.821-38.964c5.162-10.48,24.9-13.343,32.967-24.148
		c7.199-9.665,3.918-29.309,13.208-38.599s28.933-6.008,38.588-13.208c10.815-8.067,13.678-27.805,24.158-32.967
		c12.737-6.28,29.362,4.19,40.249,2.696c14.89-2.058,31.734-12.413,39.832-4.315c8.108,8.108-2.257,24.942-4.305,39.842
		C284.003,192.742,294.473,209.377,288.193,222.114z"/>
	<path style="fill:#91CC04;" d="M196.441,256c0,12.737-15.224,23.991-17.742,35.527h-98.92C77.26,279.991,62.036,268.737,62.036,256
		c0-13.145,16.217-24.712,17.941-36.634c1.944-13.343-9.989-29.32-6.228-40.385c4.566-13.448,23.73-17.805,30.365-26.561
		c9.08-11.975,13.667-31.211,25.119-31.211c11.463,0,16.039,19.237,25.13,31.211c6.635,8.756,25.799,13.113,30.365,26.561
		c3.751,11.065-8.171,27.042-6.238,40.385C180.224,231.288,196.441,242.855,196.441,256z"/>
</g>
<path style="fill:#73990A;" d="M62.032,256c0,12.733,15.226,23.992,17.747,35.527h21.943C99.203,279.992,83.975,268.733,83.975,256
	c0-13.14,16.215-24.709,17.948-36.631c1.94-13.346-9.99-29.326-6.233-40.388c4.567-13.448,23.732-17.801,30.368-26.557
	c5.528-7.293,9.39-17.268,14.15-23.962c-3.059-4.303-6.488-7.254-10.971-7.254c-11.458,0-16.04,19.234-25.121,31.215
	c-6.637,8.756-25.801,13.109-30.368,26.557c-3.757,11.061,8.173,27.041,6.233,40.388C78.247,231.291,62.032,242.86,62.032,256z"/>
<path style="fill:#FFD422;" d="M401.836,291.527h-99.464c-7.398-5.36-14.043-12.027-19.581-19.937l138.658-97.092
	C447.99,212.386,439.15,264.474,401.836,291.527z"/>
<path style="fill:#FFF5CC;" d="M389.785,196.673c14.564,20.8,9.509,49.468-11.29,64.031c-20.8,14.564-49.468,9.51-64.031-11.29
	L389.785,196.673z"/>
<path style="fill:#78B9EB;" d="M473.339,320.784c0,91.179-73.915,165.094-165.094,165.094h-104.49
	c-91.179,0-165.094-73.915-165.094-165.094"/>
<path style="fill:#3E83AD;" d="M59.559,320.784H38.661c0,91.179,73.915,165.094,165.094,165.094h20.898
	C133.474,485.878,59.559,411.962,59.559,320.784z"/>
<circle style="fill:#95E0B9;" cx="181.29" cy="72.62" r="46.498"/>
<circle style="fill:#FF6243;" cx="362.057" cy="125.91" r="46.498"/>
<g>
	<circle style="fill:#FFF5CC;" cx="181.29" cy="72.62" r="15.673"/>
	<circle style="fill:#FFF5CC;" cx="362.057" cy="125.91" r="15.673"/>
</g>
<rect x="7.837" y="291.527" style="fill:#FFFFFF;" width="496.327" height="29.257"/>
<path d="M206.256,136.614c-7.769,3.832-12.023,12.136-15.776,19.463l13.949,7.146c2.645-5.163,5.642-11.015,8.758-12.551
	c5.064-2.496,12.489-0.641,19.67,1.155c6.057,1.514,12.319,3.077,18.188,2.275c5.512-0.762,10.914-2.425,16.139-4.033
	c6.317-1.944,14.972-4.611,17.077-2.503c2.109,2.109-0.551,10.754-2.493,17.066c-1.61,5.232-3.275,10.643-4.033,16.167
	c-0.806,5.852,0.76,12.116,2.274,18.174c1.796,7.185,3.652,14.615,1.154,19.681c-1.536,3.119-7.224,6.03-12.727,8.845
	c-6.81,3.484-14.527,7.432-19.49,14.08c-4.444,5.958-5.728,13.636-6.971,21.062c-0.372,2.229-0.725,4.335-1.155,6.371l15.335,3.24
	c0.498-2.361,0.895-4.732,1.28-7.025c0.933-5.585,1.9-11.36,4.072-14.273c2.783-3.727,8.519-6.662,14.068-9.501
	c7.775-3.978,15.817-8.092,19.647-15.87c5.037-10.217,2.241-21.413-0.007-30.409c-1.152-4.614-2.345-9.385-1.953-12.24
	c0.587-4.264,2.062-9.057,3.488-13.692c3.458-11.238,7.377-23.976-1.405-32.759c-8.777-8.778-21.524-4.855-32.77-1.393
	c-4.63,1.425-9.418,2.899-13.667,3.486c-2.861,0.394-7.634-0.8-12.25-1.954C227.664,134.373,216.471,131.577,206.256,136.614z"/>
<path d="M118.891,434.069c24.709,18.512,54.055,28.298,84.865,28.298v-15.673c-27.395,0-53.49-8.703-75.467-25.167
	c-21.435-16.06-37.456-38.91-45.113-64.341l-15.008,4.518C76.782,390.317,94.796,416.018,118.891,434.069z"/>
<path d="M181.29,126.955c29.96,0,54.335-24.374,54.335-54.335S211.25,18.286,181.29,18.286S126.955,42.66,126.955,72.62
	S151.329,126.955,181.29,126.955z M181.29,33.959c21.318,0,38.661,17.343,38.661,38.661s-17.343,38.661-38.661,38.661
	s-38.661-17.343-38.661-38.661S159.972,33.959,181.29,33.959z"/>
<path d="M362.057,180.245c29.96,0,54.335-24.374,54.335-54.335s-24.374-54.335-54.335-54.335s-54.335,24.374-54.335,54.335
	S332.097,180.245,362.057,180.245z M362.057,87.249c21.318,0,38.661,17.343,38.661,38.661s-17.343,38.661-38.661,38.661
	s-38.661-17.343-38.661-38.661S340.739,87.249,362.057,87.249z"/>
<path d="M181.29,96.131c12.963,0,23.51-10.546,23.51-23.51s-10.547-23.51-23.51-23.51c-12.963,0-23.51,10.546-23.51,23.51
	S168.327,96.131,181.29,96.131z M181.29,64.784c4.322,0,7.837,3.515,7.837,7.837s-3.515,7.837-7.837,7.837
	c-4.322,0-7.837-3.515-7.837-7.837S176.968,64.784,181.29,64.784z"/>
<path d="M362.057,149.42c12.963,0,23.51-10.546,23.51-23.51c0-12.964-10.547-23.51-23.51-23.51s-23.51,10.546-23.51,23.51
	C338.547,138.874,349.094,149.42,362.057,149.42z M362.057,118.073c4.322,0,7.837,3.515,7.837,7.837s-3.515,7.837-7.837,7.837
	s-7.837-3.515-7.837-7.837S357.735,118.073,362.057,118.073z"/>
<path d="M512,283.69h-90.066c11.09-12.719,18.516-28.274,21.382-45.314c4.052-24.086-1.435-48.367-15.449-68.374l-4.495-6.418
	L271.876,269.665l4.495,6.42c1.858,2.653,3.855,5.181,5.957,7.605h-90.924c0.671-0.967,1.363-1.938,2.051-2.904
	c5.072-7.113,10.821-15.175,10.821-24.786c0-4.939-1.523-9.468-3.688-13.67l62.991-62.991l-11.083-11.082l-60.665,60.665
	c-2.706-3.86-5.146-7.677-5.583-10.682c-0.67-4.604,1.312-10.738,3.229-16.67c2.683-8.308,5.46-16.898,2.671-25.106
	c-3.662-10.784-13.553-16.723-21.501-21.491c-4.08-2.449-8.3-4.982-10.041-7.281c-2.598-3.427-4.942-7.858-7.211-12.142
	c-5.503-10.395-11.74-22.177-24.156-22.177c-12.414,0-18.651,11.781-24.154,22.175c-2.268,4.285-4.614,8.715-7.213,12.144
	c-1.742,2.299-5.961,4.832-10.04,7.28c-7.949,4.77-17.839,10.707-21.501,21.49c-2.788,8.209-0.014,16.8,2.67,25.107
	c1.916,5.933,3.897,12.068,3.229,16.674c-0.523,3.6-3.922,8.364-7.209,12.972c-5.072,7.113-10.821,15.174-10.821,24.785
	s5.749,17.672,10.821,24.785c0.689,0.965,1.38,1.937,2.051,2.905H0v44.931h465.307c-4.098,83.085-72.977,149.42-157.062,149.42
	h-104.49c-79.045,0-146.112-59.044-156.003-137.341l-15.549,1.964c10.877,86.113,84.629,151.05,171.552,151.05h104.49
	c92.727,0,168.633-73.363,172.746-165.094H512V283.69z M350.2,233.958l16.912,24.153c-13.858,5.927-30.074,3.074-41.071-7.236
	L350.2,233.958z M379.95,249.12l-16.912-24.153l24.159-16.916C393.125,221.911,390.259,238.125,379.95,249.12z M294.029,273.288
	l18.993-13.299c10.382,11.001,24.678,16.85,39.176,16.85c10.657,0,21.417-3.151,30.79-9.713
	c22.126-15.493,29.015-44.74,17.237-68.197l18.978-13.289c8.514,15.205,11.584,32.734,8.656,50.138
	c-3.225,19.168-13.38,36.08-28.667,47.914h-94.159C301.037,280.593,297.345,277.13,294.029,273.288z M496.327,312.947H15.673
	v-13.584h121.4V166.139H121.4V283.69H85.3c-1.971-4.218-4.775-8.152-7.522-12.005c-3.889-5.452-7.909-11.091-7.909-15.685
	s4.021-10.233,7.909-15.685c4.37-6.127,8.889-12.464,9.957-19.819c1.194-8.211-1.471-16.464-3.823-23.746
	c-1.899-5.879-3.862-11.957-2.744-15.249c1.815-5.344,8.379-9.283,14.726-13.093c5.356-3.215,10.895-6.539,14.467-11.251
	c3.367-4.44,6.013-9.442,8.574-14.277c3.091-5.839,7.325-13.835,10.302-13.835c2.979,0,7.212,7.998,10.304,13.837
	c2.56,4.836,5.207,9.837,8.571,14.276c3.571,4.712,9.112,8.036,14.468,11.251c6.348,3.81,12.911,7.75,14.727,13.094
	c1.118,3.291-0.845,9.37-2.744,15.247c-2.353,7.282-5.019,15.535-3.824,23.744c1.069,7.356,5.588,13.691,9.957,19.819
	c3.889,5.452,7.909,11.091,7.909,15.686c0,4.595-4.021,10.234-7.909,15.686c-2.747,3.851-5.552,7.786-7.522,12.004h-22.707v15.673
	h345.861V312.947z"/>
<g>
</g>
<g>
</g>
<g>
</g>
<g>
</g>
<g>
</g>
<g>
</g>
<g>
</g>
<g>
</g>
<g>
</g>
<g>
</g>
<g>
</g>
<g>
</g>
<g>
</g>
<g>
</g>
<g>
</g>
</svg>
