<svg height="512pt" viewBox="-20 0 512 512" width="512pt" xmlns="http://www.w3.org/2000/svg" xmlns:xlink="http://www.w3.org/1999/xlink"><linearGradient id="linear0" gradientUnits="userSpaceOnUse" x1="0" x2="472" y1="256" y2="256"><stop offset="0" stop-color="#00f2fe"/><stop offset=".0208" stop-color="#03effe"/><stop offset=".2931" stop-color="#24d2fe"/><stop offset=".5538" stop-color="#3cbdfe"/><stop offset=".7956" stop-color="#4ab0fe"/><stop offset="1" stop-color="#4facfe"/></linearGradient><path d="m380.101562 438.140625c6.550782 8.894531 4.65625 21.414063-4.238281 27.964844-40.746093 30.023437-89.109375 45.894531-139.863281 45.894531-63.039062 0-122.304688-24.546875-166.878906-69.121094-44.574219-44.574218-69.121094-103.839844-69.121094-166.878906 0-41.941406 11.148438-83.136719 32.238281-119.140625 13.511719-23.0625 30.890625-43.636719 51.179688-60.859375h-30.417969c-11.046875 0-20-8.953125-20-20s8.953125-20 20-20h52c27.570312 0 50 22.429688 50 50v52c0 11.046875-8.953125 20-20 20s-20-8.953125-20-20v-36.164062c-46.800781 36.878906-75 93.824218-75 154.164062 0 108.074219 87.925781 196 196 196 42.152344 0 82.3125-13.171875 116.136719-38.09375 8.890625-6.554688 21.410156-4.65625 27.964843 4.234375zm22.777344-329.019531c-39.828125-39.824219-91.386718-63.648438-146.878906-68.273438v-20.847656c0-11.046875-8.953125-20-20-20s-20 8.953125-20 20v40c0 11.046875 8.953125 20 20 20 108.074219 0 196 87.925781 196 196 0 33.011719-8.355469 65.636719-24.160156 94.355469-5.328125 9.675781-1.800782 21.839843 7.878906 27.164062 3.058594 1.683594 6.363281 2.484375 9.625 2.484375 7.054688 0 13.894531-3.742187 17.539062-10.359375 19.046876-34.613281 29.117188-73.910156 29.117188-113.644531 0-63.039062-24.546875-122.304688-69.121094-166.878906zm-166.878906 206.878906c22.054688 0 40-17.945312 40-40 0-5.050781-.949219-9.882812-2.667969-14.339844l63.066407-77.933594c6.949218-8.585937 5.621093-21.179687-2.964844-28.125-8.585938-6.949218-21.179688-5.621093-28.125 2.964844l-63.0625 77.921875c-2.035156-.316406-4.121094-.488281-6.246094-.488281-22.054688 0-40 17.941406-40 40 0 22.054688 17.945312 40 40 40zm135.195312-267.636719 54.953126 45.796875c3.742187 3.117188 8.28125 4.636719 12.792968 4.636719 5.730469 0 11.421875-2.453125 15.375-7.199219 7.074219-8.484375 5.925782-21.09375-2.558594-28.167968l-54.953124-45.792969c-8.488282-7.074219-21.097657-5.925781-28.167969 2.558593-7.074219 8.488282-5.925781 21.097657 2.558593 28.167969zm0 0" fill="url(#linear0)"/></svg>