<svg height="464pt" viewBox="0 0 464 464" width="464pt" xmlns="http://www.w3.org/2000/svg"><path d="m296 384h168v80h-168zm0 0" fill="#627da2"/><path d="m374.640625 262.640625-22.640625-22.640625v-56l-38.078125-38.078125c-6.320313-6.320313-9.921875-14.960937-9.921875-24 0-9.363281 3.839844-17.84375 9.921875-24 6.15625-6.082031 14.636719-9.921875 24-9.921875 9.039063 0 17.679687 3.601562 24 9.921875l102.078125 102.078125v184h-168v-40l-40-40v-32h96c8.800781 0 16.800781-3.601562 22.640625-9.359375zm0 0" fill="#e9e9f1"/><path d="m384 32v88l-22.078125-22.078125c-6.320313-6.320313-14.960937-9.921875-24-9.921875-9.363281 0-17.84375 3.839844-24 9.921875-6.082031 6.15625-9.921875 14.636719-9.921875 24 0 9.039063 3.601562 17.679687 9.921875 24l38.078125 38.078125v56l22.640625 22.640625c-5.839844 5.757813-13.839844 9.359375-22.640625 9.359375h-320c-17.679688 0-32-14.320312-32-32v-208c0-17.679688 14.320312-32 32-32h320c17.679688 0 32 14.320312 32 32zm0 0" fill="#ef6461"/><g fill="#425e82"><path d="m64 72.246094-33.9375-8.484375 3.875-15.523438 30.0625 7.515625 30.0625-7.515625 3.875 15.523438zm0 0"/><path d="m82.34375 93.65625-18.34375-18.34375-18.34375 18.34375-11.3125-11.3125 29.65625-29.65625 29.65625 29.65625zm0 0"/><path d="m56 32h16v32h-16zm0 0"/><path d="m160 72.246094-33.9375-8.484375 3.875-15.523438 30.0625 7.515625 30.0625-7.515625 3.875 15.523438zm0 0"/><path d="m178.34375 93.65625-18.34375-18.34375-18.34375 18.34375-11.3125-11.3125 29.65625-29.65625 29.65625 29.65625zm0 0"/><path d="m152 32h16v32h-16zm0 0"/><path d="m256 72.246094-33.9375-8.484375 3.875-15.523438 30.0625 7.515625 30.0625-7.515625 3.875 15.523438zm0 0"/><path d="m274.34375 93.65625-18.34375-18.34375-18.34375 18.34375-11.3125-11.3125 29.65625-29.65625 29.65625 29.65625zm0 0"/><path d="m248 32h16v32h-16zm0 0"/><path d="m64 152.246094-33.9375-8.484375 3.875-15.523438 30.0625 7.515625 30.0625-7.515625 3.875 15.523438zm0 0"/><path d="m82.34375 173.65625-18.34375-18.34375-18.34375 18.34375-11.3125-11.3125 29.65625-29.65625 29.65625 29.65625zm0 0"/><path d="m56 112h16v32h-16zm0 0"/><path d="m160 152.246094-33.9375-8.484375 3.875-15.523438 30.0625 7.515625 30.0625-7.515625 3.875 15.523438zm0 0"/><path d="m178.34375 173.65625-18.34375-18.34375-18.34375 18.34375-11.3125-11.3125 29.65625-29.65625 29.65625 29.65625zm0 0"/><path d="m152 112h16v32h-16zm0 0"/><path d="m56 232h64v16h-64zm0 0"/><path d="m136 232h64v16h-64zm0 0"/><path d="m56 200h16v16h-16zm0 0"/><path d="m88 200h16v16h-16zm0 0"/><path d="m320 408h16v16h-16zm0 0"/></g><path d="m370.339844 269.660156 11.3125-11.316406 16 16-11.316406 11.3125zm0 0" fill="#cdcdd3"/><path d="m296 368h168v16h-168zm0 0" fill="#cdcdd3"/></svg>