<svg height="512" viewBox="0 0 512 512" width="512" xmlns="http://www.w3.org/2000/svg"><g id="flat"><path d="m100.422 152.845a39.657 39.657 0 0 0 -21.715 32.407l-2.258 30.627 15.957 1.176 2.258-30.627a23.587 23.587 0 0 1 12.914-19.273z" fill="#875632"/><path d="m152.412 111.457h16v36.38h-16z" fill="#95d7fe" transform="matrix(.97 -.243 .243 .97 -26.655 42.778)"/><path d="m104 184c-5.334 0-10.261 2.9-14.245 7.811a2.261 2.261 0 0 1 -3.51 0c-3.984-4.911-8.911-7.811-14.245-7.811-13.255 0-24 17.909-24 40s10.745 40 24 40c6.148 0 11.754-3.857 16-10.193 4.246 6.336 9.852 10.193 16 10.193 13.255 0 24-17.909 24-40s-10.745-40-24-40z" fill="#fb0200"/><ellipse cx="334.805" cy="194.922" fill="#ff8706" rx="96" ry="40" transform="matrix(.555 -.832 .832 .555 -13.097 365.373)"/><path d="m326.805 178.922h16v32h-16z" fill="#f9cdaf" transform="matrix(.555 -.832 .832 .555 -13.1 365.368)"/><path d="m348.993 145.64h16v32h-16z" fill="#f9cdaf" transform="matrix(.555 -.832 .832 .555 24.473 369.009)"/><path d="m224 224v-67.156a53.9 53.9 0 0 1 24-44.844v-56h32v56a53.9 53.9 0 0 1 24 44.844v67.156z" fill="#008c02"/><path d="m248 24h32v32h-32z" fill="#efd092"/><path d="m248 56h32v40h-32z" fill="#5eae35"/><path d="m224 176h80v72h-80z" fill="#e6e6e6"/><path d="m304 184-80 32v32h80z" fill="#d6d6d6"/><path d="m147.015 158.523h65.97v98.955h-65.97z" fill="#95d7fe" transform="matrix(.97 -.243 .243 .97 -45.073 49.867)"/><path d="m160 128-24 40 64-16z" fill="#16a8fe"/><path d="m160.478 184h31.044v15.999h-31.044z" fill="#ffc933" transform="matrix(.97 -.243 .243 .97 -41.312 48.419)"/><path d="m344 272h104l40 64v88l-144-8z" fill="#fb0200"/><path d="m408 272v48a16 16 0 0 0 16 16h64l-40-64z" fill="#95d7fe"/><path d="m344 416v32h128a16 16 0 0 0 16-16v-16z" fill="#5eae35"/><path d="m40 256 16 192h304l16-192z" fill="#ffc933"/><rect fill="#ffc933" height="32" rx="16" width="368" x="24" y="224"/><path d="m440 376h24v16h-24z" fill="#fee4a7"/><path d="m139 400a284.737 284.737 0 0 1 -88.16-13.92l5.16 61.92h304l14.354-172.251a284.682 284.682 0 0 1 -235.354 124.251z" fill="#ffb600"/><g fill="#4d4d4d"><rect height="112" rx="8" width="16" x="104" y="296"/><rect height="112" rx="8" width="16" x="152" y="296"/><rect height="112" rx="8" width="16" x="200" y="296"/><rect height="112" rx="8" width="16" x="248" y="296"/><rect height="112" rx="8" width="16" x="296" y="296"/><circle cx="408" cy="464" r="24"/><circle cx="120" cy="464" r="24"/></g><path d="m376 256h-336l1.333 8h333.334z" fill="#ffb600"/><rect fill="#666" height="35.777" rx="17.889" transform="matrix(.894 -.447 .447 .894 -111.706 86.804)" width="214.663" x="20.669" y="262.111"/><circle cx="208" cy="240" fill="#d6d6d6" r="8"/></g></svg>